<svg width="24" height="24" viewBox="0 0 24 24" fill="none" xmlns="http://www.w3.org/2000/svg">
<path fill-rule="evenodd" clip-rule="evenodd" d="M19 15.0753L18.2655 14.5518C18.2655 14.5518 17.9625 11.7858 17.43 11.2535C16.4912 10.1815 15.8167 8.92336 15.4561 7.57135C15.2082 6.75114 15.0338 6.45448 14.2534 6.44575C14.0983 6.45876 13.9475 6.50117 13.8099 6.57046C13.6724 6.63976 13.5508 6.73454 13.4524 6.84921C13.354 6.96388 13.2807 7.09612 13.237 7.23813C13.1932 7.38014 13.1798 7.52905 13.1976 7.67605C13.2065 8.05035 13.2433 8.42357 13.3077 8.79293C13.5031 9.77023 13.811 10.7241 14.2258 11.6375L13.9229 11.4717L6.79837 6.35849C6.68092 6.24022 6.53827 6.14713 6.37995 6.08544C6.22162 6.02375 6.05127 5.99487 5.88026 6.00075C5.70031 6.00643 5.52409 6.05104 5.365 6.13117C5.20591 6.21131 5.06814 6.32486 4.96216 6.4632C4.86769 6.59403 4.80339 6.74235 4.77348 6.89846C4.74357 7.05456 4.74872 7.21491 4.7886 7.36898C4.82848 7.52306 4.90219 7.66738 5.00488 7.79248C5.10758 7.91758 5.23694 8.02064 5.38449 8.09488L9.05691 10.7126L10.1586 11.4979L4.3103 7.30958C4.19249 7.19176 4.04978 7.09897 3.89154 7.03731C3.7333 6.97565 3.56313 6.94652 3.3922 6.95183C3.21315 6.95713 3.03765 7.00067 2.87871 7.07922C2.71978 7.15776 2.58149 7.2693 2.47409 7.40556C2.38894 7.53406 2.33203 7.67761 2.30678 7.82757C2.28153 7.97752 2.28848 8.13078 2.32719 8.27812C2.37053 8.43323 2.44881 8.57755 2.5566 8.70109C2.66439 8.82462 2.79913 8.92443 2.95151 8.99362L6.62393 11.6113L8.82738 13.1819L4.04405 9.84C3.9266 9.72173 3.78395 9.62864 3.62563 9.56694C3.4673 9.50525 3.29695 9.47638 3.12595 9.48225C2.94599 9.48793 2.76977 9.53254 2.61068 9.61268C2.45159 9.69281 2.31382 9.80636 2.20784 9.9447C2.11337 10.0755 2.04907 10.2239 2.01916 10.38C1.98925 10.5361 1.99441 10.6964 2.03428 10.8505C2.07416 11.0046 2.14787 11.1489 2.25056 11.274C2.35326 11.3991 2.48262 11.5021 2.63017 11.5764L6.30259 14.1941L8.1388 15.5029L4.46638 12.8852C4.34933 12.7724 4.20887 12.6839 4.05391 12.6254C3.89896 12.5669 3.7329 12.5396 3.56627 12.5454C3.39965 12.5511 3.2361 12.5897 3.08601 12.6587C2.93593 12.7278 2.80258 12.8257 2.69444 12.9463C2.58911 13.0759 2.51483 13.2259 2.47677 13.3856C2.43871 13.5454 2.4378 13.7111 2.47409 13.8712C2.51018 14.03 2.58119 14.1797 2.68245 14.3105C2.78372 14.4413 2.91296 14.5503 3.06168 14.6303L9.81894 19.4381C10.2995 19.778 10.847 20.0227 11.429 20.1576C12.0109 20.2925 12.6155 20.3149 13.2067 20.2234C13.5832 20.4765 14.3085 21 14.3085 21C15.2935 20.2866 16.1601 19.4365 16.8792 18.4783C17.7132 17.42 18.4243 16.2791 19 15.0753Z" fill="#49992A"/>
<path fill-rule="evenodd" clip-rule="evenodd" d="M15 12L14 11Z" fill="#93D870"/>
<path d="M18 14.4217C17.8819 13.55 17.8092 10.9625 17.4184 10.5452C16.5097 9.5158 15.6827 8.89445 15.2738 7.49408C15.0284 6.62232 14.8558 6.30701 14.0833 6.29773C13.9298 6.31157 13.7806 6.35664 13.6444 6.43029C13.5082 6.50393 13.3879 6.60467 13.2905 6.72655C13.1931 6.84843 13.1206 6.98898 13.0773 7.13992C13.034 7.29085 13.0207 7.44911 13.0383 7.60536C13.0471 8.00318 13.0836 8.39986 13.1473 8.79243C13.3543 9.88492 13.6585 10.9559 14.0561 11.992L6.78617 6.37192C6.66876 6.24837 6.52714 6.15148 6.37056 6.08756C6.21398 6.02364 6.04594 5.99413 5.87743 6.00097C5.70021 6.0066 5.5265 6.05287 5.36919 6.13635C5.21187 6.21984 5.07499 6.33839 4.96869 6.48321C4.88138 6.61843 4.82256 6.7707 4.79597 6.93035C4.76937 7.08999 4.77558 7.25354 4.81421 7.41061C4.85658 7.57556 4.93276 7.72946 5.03771 7.86214C5.14267 7.99483 5.27401 8.10329 5.42306 8.18035L9.05802 10.9625L10.1485 11.7972L4.28714 7.39206C4.16973 7.26851 4.02811 7.17161 3.87153 7.10769C3.71495 7.04377 3.54691 7.01427 3.3784 7.0211C3.20118 7.02674 3.02747 7.07301 2.87016 7.15649C2.71284 7.23997 2.57596 7.35852 2.46966 7.50335C2.38131 7.63811 2.32118 7.79005 2.29304 7.94963C2.26489 8.10921 2.26933 8.273 2.30609 8.43075C2.34308 8.59546 2.41519 8.74983 2.51728 8.88287C2.61937 9.01591 2.74894 9.12435 2.89677 9.20049L6.53172 11.9827L8.71269 13.652L4.02361 10.0722C3.9062 9.94869 3.76458 9.85179 3.608 9.78787C3.45141 9.72395 3.28338 9.69445 3.11487 9.70128C2.93764 9.70691 2.76393 9.75319 2.60662 9.83667C2.44931 9.92015 2.31243 10.0387 2.20613 10.1835C2.11248 10.3233 2.04874 10.4817 2.01906 10.6483C1.98937 10.8149 1.99441 10.986 2.03385 11.1505C2.07329 11.315 2.14624 11.4691 2.24794 11.6029C2.34965 11.7367 2.47783 11.8472 2.62415 11.927L6.2591 14.7092L8.07658 16.1003L4.44162 13.3181C4.32577 13.1982 4.18674 13.1041 4.03337 13.042C3.87999 12.9798 3.71563 12.9508 3.5507 12.9569C3.38578 12.963 3.2239 13.0041 3.07534 13.0774C2.92679 13.1508 2.7948 13.2549 2.68776 13.383C2.58783 13.526 2.51921 13.6892 2.48655 13.8616C2.45389 14.034 2.45795 14.2116 2.49847 14.3822C2.53898 14.5529 2.61499 14.7126 2.72135 14.8507C2.82771 14.9887 2.96191 15.1018 3.11487 15.1822L9.73957 20.1067C10.2152 20.4679 10.7571 20.728 11.3332 20.8714C11.9092 21.0148 12.5076 21.0385 13.0928 20.9413" stroke="#165209" stroke-linecap="round" stroke-linejoin="round"/>
<path d="M15 12L14 11" stroke="#43722B" stroke-width="2" stroke-linecap="round" stroke-linejoin="round"/>
<path fill-rule="evenodd" clip-rule="evenodd" d="M22 15.5975L21.2592 15.0343C21.2592 15.0343 20.9536 12.0583 20.4165 11.4857C19.459 10.3358 18.7776 8.97652 18.4256 7.51464C18.1755 6.63219 17.9903 6.29423 17.2125 6.29423C17.0556 6.30836 16.9033 6.35478 16.7648 6.43065C16.6263 6.50651 16.5045 6.61023 16.4068 6.73545C16.3008 6.86458 16.2229 7.01496 16.1782 7.17675C16.1335 7.33853 16.1231 7.50807 16.1476 7.67423C16.1479 8.06006 16.1695 8.44556 16.2124 8.82893C16.5087 10.3779 16.8143 11.6453 16.8606 11.7204L9.84135 6.37872C9.68376 6.20872 9.48075 6.0889 9.25712 6.03389C9.03349 5.97887 8.79889 5.99105 8.58197 6.06892C8.36547 6.14787 8.17658 6.28946 8.03867 6.47616C7.90077 6.66286 7.81991 6.88646 7.80611 7.11929C7.79231 7.35211 7.84618 7.58392 7.96104 7.78602C8.0759 7.98811 8.24671 8.15162 8.45232 8.25628L12.1564 11.0726L13.2676 11.9175L7.35036 7.40199C7.23072 7.27692 7.08641 7.17883 6.92684 7.11413C6.76728 7.04942 6.59606 7.01956 6.42434 7.02648C6.24374 7.03218 6.06673 7.07902 5.90643 7.16353C5.74612 7.24803 5.60664 7.36804 5.49832 7.51464C5.40829 7.65106 5.34701 7.80486 5.31833 7.96639C5.28965 8.12793 5.29418 8.29374 5.33163 8.45342C5.36933 8.62015 5.44281 8.77642 5.54684 8.91109C5.65088 9.04576 5.78291 9.15554 5.93355 9.23261L9.63763 12.0489L11.8693 13.8045L7.06329 10.1151C6.88584 9.91671 6.64812 9.78413 6.38787 9.73837C6.12762 9.69261 5.85975 9.73628 5.62677 9.86246C5.3938 9.98864 5.20907 10.1901 5.10192 10.4349C4.99476 10.6796 4.97132 10.9536 5.03531 11.2134C5.07475 11.3794 5.1489 11.5349 5.25275 11.6693C5.35659 11.8038 5.48771 11.914 5.63722 11.9926L9.3413 14.809L11.1933 16.2171L7.48926 13.4008C7.3712 13.2794 7.22953 13.1842 7.07324 13.1212C6.91695 13.0583 6.74946 13.029 6.5814 13.0351C6.41333 13.0413 6.24838 13.0829 6.097 13.1571C5.94562 13.2314 5.81112 13.3367 5.70204 13.4665C5.60058 13.6078 5.52999 13.7694 5.49499 13.9406C5.45998 14.1117 5.46137 14.2885 5.49904 14.459C5.53672 14.6296 5.60983 14.79 5.7135 14.9297C5.81716 15.0694 5.949 15.185 6.10023 15.269L12.712 20.2914C13.7096 20.8904 14.833 21.2411 15.9901 21.3147C16.4055 21.5743 16.8388 21.8033 17.2866 22C18.6198 21.7635 19.811 21.0133 20.611 19.9065C21.4761 18.637 21.9587 17.14 22 15.5975Z" fill="#6DAE4F"/>
<path fill-rule="evenodd" clip-rule="evenodd" d="M18 12L17 11Z" fill="#93D870"/>
<path d="M6.31203 1.30396L6.67286 2.97576M11.4838 3.37471L10.1238 4.32459M9.3929 1L8.40295 3.65967M21.9014 15.6472C21.5705 15.2845 21.3182 14.854 21.1613 14.3839C21.078 14.0229 21.0503 13.6524 20.9855 13.2915C20.9473 12.6451 20.7465 12.02 20.4026 11.4772C19.446 10.3137 18.7651 8.93838 18.4135 7.45921C18.1637 6.56632 17.9786 6.22436 17.2015 6.22436C17.0448 6.23866 16.8926 6.28563 16.7542 6.36239C16.6158 6.43915 16.4941 6.5441 16.3966 6.6708C16.2906 6.80146 16.2128 6.95362 16.1682 7.11732C16.1235 7.28102 16.1131 7.45255 16.1375 7.62069C16.1378 8.01107 16.1594 8.40114 16.2023 8.78904C16.4983 10.3563 16.8036 11.6387 16.8499 11.7147L9.83699 6.30985C9.67954 6.13783 9.47672 6.0166 9.25329 5.96094C9.02985 5.90527 8.79547 5.91759 8.57874 5.99639C8.36244 6.07627 8.17372 6.21953 8.03594 6.40844C7.89815 6.59735 7.81737 6.8236 7.80358 7.05918C7.78979 7.29475 7.84361 7.52931 7.95837 7.73379C8.07313 7.93828 8.24379 8.10372 8.44921 8.20961L12.15 11.0593L13.2602 11.9142L7.34824 7.34522C7.22871 7.21867 7.08453 7.11943 6.92511 7.05396C6.76569 6.98849 6.59462 6.95827 6.42306 6.96527C6.24262 6.97104 6.06577 7.01843 5.90561 7.10394C5.74545 7.18944 5.60609 7.31087 5.49787 7.45921C5.40792 7.59724 5.3467 7.75285 5.31805 7.9163C5.28939 8.07975 5.29391 8.24752 5.33134 8.40909C5.369 8.5778 5.44241 8.73591 5.54635 8.87217C5.65029 9.00844 5.78221 9.11951 5.93271 9.19749L9.63345 12.0471L11.8632 13.8234L7.06143 10.0904C6.88414 9.88969 6.64664 9.75554 6.38662 9.70924C6.1266 9.66293 5.85897 9.70713 5.62621 9.8348C5.39344 9.96247 5.20888 10.1663 5.10183 10.414C4.99477 10.6616 4.97134 10.9389 5.03528 11.2017C5.07468 11.3697 5.14877 11.527 5.25252 11.663C5.35627 11.7991 5.48727 11.9106 5.63665 11.9901L9.33739 14.8398L11.1878 16.2646L7.48702 13.415C7.36907 13.2921 7.22752 13.1958 7.07137 13.1321C6.91522 13.0684 6.74788 13.0388 6.57997 13.045C6.41206 13.0513 6.24725 13.0933 6.09601 13.1684C5.94476 13.2436 5.81039 13.3502 5.70141 13.4815C5.60004 13.6244 5.52951 13.788 5.49454 13.9611C5.45957 14.1343 5.46095 14.3131 5.4986 14.4857C5.53624 14.6583 5.60928 14.8207 5.71286 14.962C5.81643 15.1033 5.94815 15.2203 6.09924 15.3052L12.7051 20.3871C13.2516 20.8053 13.8849 21.0881 14.5554 21.2135C14.8515 21.2705 15.1661 21.299 15.4806 21.3655C15.9789 21.4479 16.4604 21.6148 16.9054 21.8594C17.2143 22.0106 17.5662 22.041 17.8954 21.9449C19.0611 21.5339 20.0819 20.7768 20.8282 19.7697C21.5304 18.7959 21.9303 17.6273 21.9754 16.4166C22.025 16.1582 21.9992 15.8906 21.9014 15.6472Z" stroke="#165209" stroke-width="1.67" stroke-linecap="round" stroke-linejoin="round"/>
</svg>
