<svg width="24" height="24" viewBox="0 0 24 24" fill="none" xmlns="http://www.w3.org/2000/svg">
<path d="M12 22C17.5228 22 22 17.5228 22 12C22 6.47715 17.5228 2 12 2C6.47715 2 2 6.47715 2 12C2 17.5228 6.47715 22 12 22Z" fill="#79DEEE"/>
<path d="M12 17.5C14.5005 17.5 16.5 15.667 16.5 14H7.5C7.5 15.667 9.4995 17.5 12 17.5Z" fill="#104E58"/>
<path d="M12 22C17.5228 22 22 17.5228 22 12C22 6.47715 17.5228 2 12 2C6.47715 2 2 6.47715 2 12C2 17.5228 6.47715 22 12 22Z" stroke="#104E58" stroke-width="2" stroke-linecap="round" stroke-linejoin="round"/>
<path d="M12 17.5C14.5005 17.5 16.5 15.667 16.5 14H7.5C7.5 15.667 9.4995 17.5 12 17.5Z" stroke="#104E58" stroke-width="2" stroke-linecap="round" stroke-linejoin="round"/>
<path d="M12.0082 15C9.8882 15 8.2582 15.87 9.3482 16.68C9.9082 17.1 10.9082 17.41 12.0082 17.4C12.8282 17.39 13.9082 17.19 14.6682 16.68C15.7282 15.96 14.1382 15 12.0082 15Z" fill="#AEF0FA"/>
<path d="M17.84 11.14C17.07 9.40001 14.82 8.91001 13.39 10.19L13.25 10.31L13.67 10.98L13.96 10.86C15.07 10.4 16.36 10.68 17.17 11.58L17.83 11.15L17.84 11.14Z" fill="#104E58"/>
<path d="M10.6099 10.19C9.18992 8.92 6.93992 9.4 6.16992 11.14L6.82992 11.57C7.63992 10.68 8.92992 10.39 10.0399 10.85L10.3299 10.97L10.7499 10.3L10.6099 10.18V10.19Z" fill="#104E58"/>
<path d="M9 7C8.08 6.96 6.5 7.5 6 8.5" stroke="#104E58" stroke-linecap="round"/>
<path d="M15 7C15.92 6.96 17.5 7.5 18 8.5" stroke="#104E58" stroke-linecap="round"/>
</svg>
