<svg width="24" height="24" viewBox="0 0 24 24" fill="none" xmlns="http://www.w3.org/2000/svg">
<path d="M15.825 16.1303C17.2634 15.0955 18.2 13.4071 18.2 11.5C18.2 8.35198 15.648 5.8 12.5 5.8C9.35198 5.8 6.8 8.35198 6.8 11.5C6.8 13.4071 7.73663 15.0955 9.175 16.1303V17.96C9.175 19.0241 9.175 19.5562 9.38209 19.9626C9.56425 20.3201 9.85491 20.6108 10.2124 20.7929C10.6189 21 11.1509 21 12.215 21H12.785C13.8491 21 14.3811 21 14.7876 20.7929C15.1451 20.6108 15.4358 20.3201 15.6179 19.9626C15.825 19.5562 15.825 19.0241 15.825 17.96V16.1303Z" fill="#F5BB5C"/>
<path d="M12.5 2V2.95M3.95 11.5H3M6.325 5.325L5.75491 4.75491M18.675 5.325L19.2452 4.75491M22 11.5H21.05M10.6 12.925H14.4M12.5 12.925V17.675M15.825 16.1303C17.2634 15.0955 18.2 13.4071 18.2 11.5C18.2 8.35198 15.648 5.8 12.5 5.8C9.35198 5.8 6.8 8.35198 6.8 11.5C6.8 13.4071 7.73663 15.0955 9.175 16.1303V17.96C9.175 19.0241 9.175 19.5562 9.38209 19.9626C9.56425 20.3201 9.85491 20.6108 10.2124 20.7929C10.6189 21 11.1509 21 12.215 21H12.785C13.8491 21 14.3811 21 14.7876 20.7929C15.1451 20.6108 15.4358 20.3201 15.6179 19.9626C15.825 19.5562 15.825 19.0241 15.825 17.96V16.1303Z" stroke="#5D3B01" stroke-width="2" stroke-linecap="round" stroke-linejoin="round"/>
</svg>
