<svg width="24" height="24" viewBox="0 0 24 24" fill="none" xmlns="http://www.w3.org/2000/svg">
<rect x="11" y="15" width="8" height="5" fill="#BBA9D1"/>
<path d="M19.6 22C19.0399 22 18.7599 22 18.546 21.891C18.3578 21.7951 18.2049 21.6422 18.109 21.454C18 21.2401 18 20.9601 18 20.4V14.6C18 14.0399 18 13.7599 18.109 13.546C18.2049 13.3578 18.3578 13.2049 18.546 13.109C18.7599 13 19.0399 13 19.6 13H20.4C20.9601 13 21.2401 13 21.454 13.109C21.6422 13.2049 21.7951 13.3578 21.891 13.546C22 13.7599 22 14.0399 22 14.6L22 20.4C22 20.9601 22 21.2401 21.891 21.454C21.7951 21.6422 21.6422 21.7951 21.454 21.891C21.2401 22 20.9601 22 20.4 22H19.6Z" fill="#BBA9D1"/>
<path d="M10.7145 17.0498H8.28635C7.83569 17.0498 7.39751 16.9081 7.0374 16.6449L4.52287 14.8103C3.89527 14.3527 3.01685 14.4134 2.46211 14.9531C1.84597 15.5524 1.84597 16.5234 2.46211 17.1217L4.61966 19.2205C5.20042 19.7854 5.94146 20.1712 6.74703 20.3281L9.79653 20.9214C10.4012 21.0388 11.0247 21.0247 11.6231 20.8789L14.3812 20.2086C14.7111 20.1277 15.0494 20.0872 15.3897 20.0872H18" fill="#BBA9D1"/>
<path d="M10.7145 17.0498L9.16893 17.0498C8.2978 17.0498 7.59214 16.3633 7.59214 15.5159V15.2091C7.59214 14.5055 8.08444 13.892 8.78592 13.7219L11.1714 13.1417C11.5596 13.0476 11.9572 13 12.3569 13C13.3217 13 15.0681 13.7988 15.0681 13.7988L18 15.0249" fill="#BBA9D1"/>
<path d="M18 20.0872H15.3897C15.0494 20.0872 14.7111 20.1277 14.3812 20.2086L11.6231 20.8789C11.0247 21.0247 10.4012 21.0388 9.79653 20.9214L6.74703 20.3281C5.94146 20.1712 5.20042 19.7854 4.61966 19.2205L2.46211 17.1217C1.84597 16.5234 1.84597 15.5524 2.46211 14.9531C3.01685 14.4134 3.89527 14.3527 4.52287 14.8103L7.0374 16.6449C7.39751 16.9081 7.83569 17.0498 8.28635 17.0498H10.7145L9.16893 17.0498C8.2978 17.0498 7.59214 16.3633 7.59214 15.5159V15.2091C7.59214 14.5055 8.08444 13.892 8.78592 13.7219L11.1714 13.1417C11.5596 13.0476 11.9572 13 12.3569 13C13.3217 13 15.0681 13.7988 15.0681 13.7988L18 15.0249M22 14.6L22 20.4C22 20.9601 22 21.2401 21.891 21.454C21.7951 21.6422 21.6422 21.7951 21.454 21.891C21.2401 22 20.9601 22 20.4 22H19.6C19.0399 22 18.7599 22 18.546 21.891C18.3578 21.7951 18.2049 21.6422 18.109 21.454C18 21.2401 18 20.9601 18 20.4V14.6C18 14.0399 18 13.7599 18.109 13.546C18.2049 13.3578 18.3578 13.2049 18.546 13.109C18.7599 13 19.0399 13 19.6 13H20.4C20.9601 13 21.2401 13 21.454 13.109C21.6422 13.2049 21.7951 13.3578 21.891 13.546C22 13.7599 22 14.0399 22 14.6Z" stroke="#493D57" stroke-width="2" stroke-linecap="round" stroke-linejoin="round"/>
<path fill-rule="evenodd" clip-rule="evenodd" d="M6.82714 3.61891C7.42395 2.37006 8.79993 1.70844 10.1381 2.34703C11.4762 2.98562 12.0463 4.50004 11.4861 5.82948C11.1398 6.65112 10.1478 8.24666 9.44042 9.34569C9.17906 9.75177 9.04839 9.95481 8.85751 10.0736C8.69379 10.1755 8.48884 10.2304 8.29612 10.224C8.07143 10.2166 7.85674 10.1061 7.42736 9.88509C6.26527 9.28697 4.60837 8.40121 3.89768 7.86278C2.74776 6.99158 2.46293 5.39023 3.32384 4.1729C4.18476 2.95556 5.68585 2.83578 6.82714 3.61891Z" fill="#DF704D" stroke="#77280C" stroke-width="2" stroke-linecap="round" stroke-linejoin="round"/>
</svg>
