<svg width="20" height="21" viewBox="0 0 20 21" fill="none" xmlns="http://www.w3.org/2000/svg">
<path d="M9.16699 3.62812H5.66699C4.26686 3.62812 3.5668 3.62812 3.03202 3.9006C2.56161 4.14029 2.17916 4.52274 1.93948 4.99314C1.66699 5.52792 1.66699 6.22799 1.66699 7.62812V14.6281C1.66699 16.0283 1.66699 16.7283 1.93948 17.2631C2.17916 17.7335 2.56161 18.116 3.03202 18.3556C3.5668 18.6281 4.26686 18.6281 5.66699 18.6281H12.667C14.0671 18.6281 14.7672 18.6281 15.302 18.3556C15.7724 18.116 16.1548 17.7335 16.3945 17.2631C16.667 16.7283 16.667 16.0283 16.667 14.6281V11.1281M6.66697 13.6281H8.06242C8.47007 13.6281 8.6739 13.6281 8.86571 13.5821C9.03577 13.5412 9.19835 13.4739 9.34747 13.3825C9.51566 13.2794 9.65979 13.1353 9.94804 12.8471L17.917 4.87812C18.6073 4.18776 18.6073 3.06847 17.917 2.37812C17.2266 1.68776 16.1073 1.68776 15.417 2.37812L7.44802 10.3471C7.15977 10.6353 7.01564 10.7794 6.91257 10.9476C6.82119 11.0968 6.75385 11.2593 6.71302 11.4294C6.66697 11.6212 6.66697 11.825 6.66697 12.2327V13.6281Z" stroke="#344054" stroke-width="1.66667" stroke-linecap="round" stroke-linejoin="round"/>
</svg>
