<svg width="66" height="66" viewBox="0 0 66 66" fill="none" xmlns="http://www.w3.org/2000/svg">
<rect x="5" y="5" width="56" height="56" rx="28" fill="#FEE4E2"/>
<rect x="5" y="5" width="56" height="56" rx="28" stroke="#FEF3F2" stroke-width="10"/>
<path d="M32.9998 33.0002L28.0148 28.846C27.2741 28.2288 26.9038 27.9201 26.6376 27.5418C26.4017 27.2066 26.2265 26.8326 26.12 26.4368C25.9998 25.9901 25.9998 25.5081 25.9998 24.5439V21.3335M32.9998 33.0002L37.9849 28.846C38.7255 28.2288 39.0959 27.9201 39.3621 27.5418C39.598 27.2066 39.7732 26.8326 39.8797 26.4368C39.9998 25.9901 39.9998 25.5081 39.9998 24.5439V21.3335M32.9998 33.0002L28.0148 37.1544C27.2741 37.7716 26.9038 38.0802 26.6376 38.4585C26.4017 38.7937 26.2265 39.1677 26.12 39.5635C25.9998 40.0102 25.9998 40.4923 25.9998 41.4564V44.6668M32.9998 33.0002L37.9849 37.1544C38.7255 37.7716 39.0959 38.0802 39.3621 38.4585C39.598 38.7937 39.7732 39.1677 39.8797 39.5635C39.9998 40.0102 39.9998 40.4923 39.9998 41.4564V44.6668M23.6665 21.3335H42.3332M23.6665 44.6668H42.3332" stroke="#D92D20" stroke-width="2" stroke-linecap="round" stroke-linejoin="round"/>
</svg>
