<svg width="24" height="25" viewBox="0 0 24 25" fill="none" xmlns="http://www.w3.org/2000/svg">
<g clip-path="url(#clip0_576_60824)">
<path d="M24 12.3374C24 5.70998 18.6274 0.337402 12 0.337402C5.37258 0.337402 0 5.70998 0 12.3374C0 18.3269 4.3882 23.2914 10.125 24.1916V15.8062H7.07812V12.3374H10.125V9.69365C10.125 6.68615 11.9166 5.0249 14.6576 5.0249C15.9701 5.0249 17.3438 5.25928 17.3438 5.25928V8.2124H15.8306C14.34 8.2124 13.875 9.13748 13.875 10.0874V12.3374H17.2031L16.6711 15.8062H13.875V24.1916C19.6118 23.2914 24 18.3269 24 12.3374Z" fill="#98A2B3"/>
</g>
<defs>
<clipPath id="clip0_576_60824">
<rect width="24" height="24" fill="white" transform="translate(0 0.337402)"/>
</clipPath>
</defs>
</svg>
