<svg width="24" height="25" viewBox="0 0 24 25" fill="none" xmlns="http://www.w3.org/2000/svg">
<g clip-path="url(#clip0_576_60825)">
<path d="M12 2.49834C15.2063 2.49834 15.5859 2.5124 16.8469 2.56865C18.0188 2.62021 18.6516 2.81709 19.0734 2.98115C19.6313 3.19678 20.0344 3.45928 20.4516 3.87646C20.8734 4.29834 21.1313 4.69678 21.3469 5.25459C21.5109 5.67647 21.7078 6.31396 21.7594 7.48115C21.8156 8.74678 21.8297 9.12646 21.8297 12.328C21.8297 15.5343 21.8156 15.914 21.7594 17.1749C21.7078 18.3468 21.5109 18.9796 21.3469 19.4015C21.1313 19.9593 20.8687 20.3624 20.4516 20.7796C20.0297 21.2015 19.6313 21.4593 19.0734 21.6749C18.6516 21.839 18.0141 22.0358 16.8469 22.0874C15.5813 22.1437 15.2016 22.1577 12 22.1577C8.79375 22.1577 8.41406 22.1437 7.15313 22.0874C5.98125 22.0358 5.34844 21.839 4.92656 21.6749C4.36875 21.4593 3.96563 21.1968 3.54844 20.7796C3.12656 20.3577 2.86875 19.9593 2.65313 19.4015C2.48906 18.9796 2.29219 18.3421 2.24063 17.1749C2.18438 15.9093 2.17031 15.5296 2.17031 12.328C2.17031 9.12178 2.18438 8.74209 2.24063 7.48115C2.29219 6.30928 2.48906 5.67647 2.65313 5.25459C2.86875 4.69678 3.13125 4.29365 3.54844 3.87646C3.97031 3.45459 4.36875 3.19678 4.92656 2.98115C5.34844 2.81709 5.98594 2.62021 7.15313 2.56865C8.41406 2.5124 8.79375 2.49834 12 2.49834ZM12 0.337402C8.74219 0.337402 8.33438 0.351465 7.05469 0.407715C5.77969 0.463965 4.90313 0.670215 4.14375 0.965527C3.35156 1.2749 2.68125 1.68271 2.01563 2.35303C1.34531 3.01865 0.9375 3.68897 0.628125 4.47647C0.332812 5.24053 0.126563 6.1124 0.0703125 7.3874C0.0140625 8.67178 0 9.07959 0 12.3374C0 15.5952 0.0140625 16.003 0.0703125 17.2827C0.126563 18.5577 0.332812 19.4343 0.628125 20.1937C0.9375 20.9858 1.34531 21.6562 2.01563 22.3218C2.68125 22.9874 3.35156 23.3999 4.13906 23.7046C4.90313 23.9999 5.775 24.2062 7.05 24.2624C8.32969 24.3187 8.7375 24.3327 11.9953 24.3327C15.2531 24.3327 15.6609 24.3187 16.9406 24.2624C18.2156 24.2062 19.0922 23.9999 19.8516 23.7046C20.6391 23.3999 21.3094 22.9874 21.975 22.3218C22.6406 21.6562 23.0531 20.9858 23.3578 20.1983C23.6531 19.4343 23.8594 18.5624 23.9156 17.2874C23.9719 16.0077 23.9859 15.5999 23.9859 12.3421C23.9859 9.08428 23.9719 8.67647 23.9156 7.39678C23.8594 6.12178 23.6531 5.24521 23.3578 4.48584C23.0625 3.68896 22.6547 3.01865 21.9844 2.35303C21.3188 1.6874 20.6484 1.2749 19.8609 0.970215C19.0969 0.674902 18.225 0.468652 16.95 0.412402C15.6656 0.351465 15.2578 0.337402 12 0.337402Z" fill="#98A2B3"/>
<path d="M12 6.17334C8.59688 6.17334 5.83594 8.93428 5.83594 12.3374C5.83594 15.7405 8.59688 18.5015 12 18.5015C15.4031 18.5015 18.1641 15.7405 18.1641 12.3374C18.1641 8.93428 15.4031 6.17334 12 6.17334ZM12 16.3358C9.79219 16.3358 8.00156 14.5452 8.00156 12.3374C8.00156 10.1296 9.79219 8.33896 12 8.33896C14.2078 8.33896 15.9984 10.1296 15.9984 12.3374C15.9984 14.5452 14.2078 16.3358 12 16.3358Z" fill="#98A2B3"/>
<path d="M19.8469 5.9293C19.8469 6.72617 19.2 7.36836 18.4078 7.36836C17.6109 7.36836 16.9688 6.72149 16.9688 5.9293C16.9688 5.13242 17.6156 4.49023 18.4078 4.49023C19.2 4.49023 19.8469 5.13711 19.8469 5.9293Z" fill="#98A2B3"/>
</g>
<defs>
<clipPath id="clip0_576_60825">
<rect width="24" height="24" fill="white" transform="translate(0 0.337402)"/>
</clipPath>
</defs>
</svg>
