<svg width="24" height="25" viewBox="0 0 24 25" fill="none" xmlns="http://www.w3.org/2000/svg">
<g clip-path="url(#clip0_576_60823)">
<path d="M22.2234 0.337402H1.77187C0.792187 0.337402 0 1.11084 0 2.06709V22.603C0 23.5593 0.792187 24.3374 1.77187 24.3374H22.2234C23.2031 24.3374 24 23.5593 24 22.6077V2.06709C24 1.11084 23.2031 0.337402 22.2234 0.337402ZM7.12031 20.789H3.55781V9.33271H7.12031V20.789ZM5.33906 7.77178C4.19531 7.77178 3.27188 6.84834 3.27188 5.70928C3.27188 4.57021 4.19531 3.64678 5.33906 3.64678C6.47813 3.64678 7.40156 4.57021 7.40156 5.70928C7.40156 6.84365 6.47813 7.77178 5.33906 7.77178ZM20.4516 20.789H16.8937V15.2202C16.8937 13.8937 16.8703 12.1827 15.0422 12.1827C13.1906 12.1827 12.9094 13.6312 12.9094 15.1265V20.789H9.35625V9.33271H12.7687V10.8983H12.8156C13.2891 9.99834 14.4516 9.04678 16.1813 9.04678C19.7859 9.04678 20.4516 11.4187 20.4516 14.503V20.789Z" fill="#98A2B3"/>
</g>
<defs>
<clipPath id="clip0_576_60823">
<rect width="24" height="24" fill="white" transform="translate(0 0.337402)"/>
</clipPath>
</defs>
</svg>
