<svg width="24" height="25" viewBox="0 0 24 25" fill="none" xmlns="http://www.w3.org/2000/svg">
<g clip-path="url(#clip0_576_60827)">
<path d="M17.0725 0.337402H13.0278V16.6852C13.0278 18.6331 11.4722 20.2331 9.53626 20.2331C7.60034 20.2331 6.04469 18.6331 6.04469 16.6852C6.04469 14.7722 7.56577 13.2069 9.43257 13.1374V9.03307C5.31872 9.1026 2 12.4765 2 16.6852C2 20.9287 5.38786 24.3374 9.57085 24.3374C13.7538 24.3374 17.1416 20.8939 17.1416 16.6852V8.3026C18.6627 9.41567 20.5295 10.0765 22.5 10.1113V6.00697C19.4579 5.90262 17.0725 3.39827 17.0725 0.337402Z" fill="#98A2B3"/>
</g>
<defs>
<clipPath id="clip0_576_60827">
<rect width="24" height="24" fill="white" transform="translate(0 0.337402)"/>
</clipPath>
</defs>
</svg>
