<svg width="24" height="25" viewBox="0 0 24 25" fill="none" xmlns="http://www.w3.org/2000/svg">
<path d="M23.7609 7.5377C23.7609 7.5377 23.5266 5.88301 22.8047 5.15645C21.8906 4.2002 20.8688 4.19551 20.4 4.13926C17.0438 3.89551 12.0047 3.89551 12.0047 3.89551H11.9953C11.9953 3.89551 6.95625 3.89551 3.6 4.13926C3.13125 4.19551 2.10938 4.2002 1.19531 5.15645C0.473438 5.88301 0.24375 7.5377 0.24375 7.5377C0.24375 7.5377 0 9.48301 0 11.4236V13.2424C0 15.183 0.239062 17.1283 0.239062 17.1283C0.239062 17.1283 0.473437 18.783 1.19062 19.5096C2.10469 20.4658 3.30469 20.433 3.83906 20.5361C5.76094 20.7189 12 20.7752 12 20.7752C12 20.7752 17.0438 20.7658 20.4 20.5268C20.8688 20.4705 21.8906 20.4658 22.8047 19.5096C23.5266 18.783 23.7609 17.1283 23.7609 17.1283C23.7609 17.1283 24 15.1877 24 13.2424V11.4236C24 9.48301 23.7609 7.5377 23.7609 7.5377ZM9.52031 15.4502V8.70488L16.0031 12.0893L9.52031 15.4502Z" fill="#98A2B3"/>
</svg>
