<svg width="82" height="42" viewBox="0 0 82 42" fill="none" xmlns="http://www.w3.org/2000/svg">
<g id="_Chart">
<path id="Background base" d="M81 1C68.0026 2.08312 67.1977 28.0136 54.3333 31C43.7251 33.4626 38.3534 19.4836 27.6667 21C16.0752 22.6447 12.3659 37.2114 1 41H81V1Z" fill="#ECFDF3"/>
<path id="Background gradient" d="M81 1C68.0026 2.08312 67.1977 28.0136 54.3333 31C43.7251 33.4626 38.3534 19.4836 27.6667 21C16.0752 22.6447 12.3659 37.2114 1 41H81V1Z" fill="url(#paint0_linear_649_37098)"/>
<path id="Line" d="M1 41C12.3659 37.2114 16.0752 22.6447 27.6667 21C38.3534 19.4836 43.7251 33.4626 54.3333 31C67.1977 28.0136 68.0026 2.08312 81 1" stroke="#12B76A" stroke-width="2" stroke-linecap="round" stroke-linejoin="round"/>
</g>
<defs>
<linearGradient id="paint0_linear_649_37098" x1="41" y1="1" x2="41" y2="41" gradientUnits="userSpaceOnUse">
<stop offset="0.641167" stop-color="white" stop-opacity="0"/>
<stop offset="1" stop-color="white"/>
</linearGradient>
</defs>
</svg>
